<?xml version="1.0" encoding="UTF-8"?>
<svg xmlns="http://www.w3.org/2000/svg" width="800" height="800" version="1.1" viewBox="0 0 800 800">
  <defs>
    <style>
      .cls-1 {
        stroke: #000;
        stroke-linecap: round;
        stroke-miterlimit: 10;
        stroke-width: 10px;
      }
    </style>
  </defs>
  <!-- Generator: Adobe Illustrator 28.6.0, SVG Export Plug-In . SVG Version: 1.2.0 Build 709)  -->
  <g>
    <g id="Layer_1">
      <g>
        <path class="cls-1" d="M242.3,122h-17.1c-1.5,0-2.7-.8-3.4-2.4l-24.4-57.4-24.4,57.4c-.7,1.6-1.9,2.4-3.4,2.4h-17.1c-1.1,0-1.9-.3-2.3-.9-.4-.6-.4-1.5,0-2.6l33.9-77c.6-1.5,1.7-2.2,3.4-2.2h19.8c1.7,0,2.8.7,3.4,2.2l34,77c.5,1.1.5,1.9,0,2.6s-1.3.9-2.4.9Z"/>
        <path class="cls-1" d="M504.7,183.8h-245.9v-20.7h245.9v20.7Z"/>
        <path class="cls-1" d="M613.9,122h-17.1c-1.5,0-2.7-.8-3.4-2.4l-24.4-57.4-24.4,57.4c-.7,1.6-1.9,2.4-3.4,2.4h-17.1c-1.1,0-1.9-.3-2.3-.9-.4-.6-.4-1.5,0-2.6l33.9-77c.6-1.5,1.7-2.2,3.4-2.2h19.8c1.7,0,2.8.7,3.4,2.2l34,77c.5,1.1.5,1.9,0,2.6s-1.3.9-2.4.9Z"/>
        <g>
          <path class="cls-1" d="M231.1,207.5v23.6c-5.9,0-11,.6-15.4,1.8s-8.1,3.2-11.1,5.8c-3,2.6-5.5,5.6-7.4,9-1.9,3.4-3.4,7.6-4.4,12.7-1,5.1-1.7,10.3-2.1,15.6-.4,5.3-.6,11.6-.6,18.8s.2,13.5.6,18.8c.4,5.3,1.1,10.5,2.1,15.6,1,5.1,2.5,9.4,4.4,12.8,1.9,3.4,4.4,6.4,7.4,9.1s6.7,4.6,11.1,5.9c4.4,1.2,9.6,1.8,15.4,1.8v23.5c-30.2,0-50.1-11.4-59.7-34.1-4.9-11.7-7.5-28.1-7.7-49.3v-4.2c0-5,0-9.5.2-13.4.2-4,.5-8.4,1.1-13.4.5-5,1.3-9.4,2.2-13.3.9-3.9,2.2-8,3.9-12.4,1.7-4.4,3.7-8.2,6-11.4,2.3-3.2,5.2-6.4,8.6-9.4s7.2-5.6,11.5-7.5c4.3-1.9,9.3-3.5,15-4.6,5.7-1.2,12-1.8,18.9-1.8Z"/>
          <path class="cls-1" d="M356.8,348.3c-9.7,9.9-21.8,14.8-36.5,14.8s-26.8-4.9-36.4-14.8c-9.6-9.9-14.4-22.2-14.4-37s4.8-27,14.4-36.9c9.6-9.9,21.8-14.8,36.4-14.8s26.8,4.9,36.5,14.8c9.7,9.9,14.5,22.2,14.5,36.9s-4.8,27-14.5,36.9ZM301.4,331.9c5,5.3,11.3,7.9,18.9,7.9s14-2.6,18.9-7.9c5-5.3,7.4-12.1,7.4-20.5s-2.5-15.2-7.4-20.4c-4.9-5.2-11.3-7.8-19-7.8s-14.1,2.6-19,7.8c-4.9,5.2-7.4,12-7.4,20.4s2.5,15.2,7.4,20.5Z"/>
          <path class="cls-1" d="M482,347.4c-8,10.9-20.9,16.3-38.7,16.3s-30.7-5.4-38.7-16.3c-8-10.9-12-28.6-12-53.2s4-42.3,12-53.2c8-10.9,20.9-16.3,38.7-16.3s30.7,5.4,38.7,16.3c8,10.9,12,28.6,12,53.2s-4,42.3-12,53.2ZM434.6,337.6c2.5.7,5.4,1.1,8.7,1.1s6.2-.4,8.7-1.1c2.5-.7,4.8-2.1,7-4,2.2-2,4-4.6,5.4-7.9,1.4-3.3,2.4-7.6,3.2-12.8.8-5.2,1.1-11.4,1.1-18.5s-.4-13.3-1.1-18.5c-.8-5.2-1.8-9.5-3.2-12.8-1.4-3.3-3.2-6-5.4-7.9-2.2-2-4.5-3.3-7-4-2.5-.7-5.4-1.1-8.7-1.1s-6.2.4-8.7,1.1c-2.5.7-4.8,2.1-7,4-2.2,2-4,4.6-5.3,7.9s-2.4,7.6-3.2,12.8-1.1,11.4-1.1,18.5.4,13.3,1.1,18.5,1.8,9.5,3.2,12.8,3.1,6,5.3,7.9,4.5,3.3,7,4Z"/>
          <path class="cls-1" d="M535.3,231.1v-23.6c6.9,0,13.2.6,18.9,1.8,5.7,1.2,10.7,2.7,15,4.6,4.3,1.9,8.1,4.4,11.5,7.5,3.4,3.1,6.3,6.2,8.6,9.4,2.3,3.2,4.3,7,6,11.4,1.7,4.4,3,8.5,3.9,12.4.9,3.9,1.7,8.3,2.2,13.3.5,5,.9,9.5,1,13.4.2,4,.3,8.5.3,13.4,0,20.5-1.9,36.4-5.6,47.8-7,21.7-21.9,34.4-44.8,38.4-5.2.9-10.9,1.4-17,1.4v-23.5c5.9,0,11-.6,15.4-1.8,4.4-1.2,8.1-3.2,11.1-5.9,3-2.7,5.5-5.7,7.4-9.1,1.9-3.4,3.4-7.7,4.4-12.8,1-5.1,1.8-10.3,2.2-15.6s.6-11.6.6-18.8-.2-13.5-.6-18.8-1.1-10.5-2.2-15.6c-1-5.1-2.5-9.3-4.4-12.7-1.9-3.4-4.4-6.4-7.4-9-3-2.6-6.7-4.6-11.1-5.8-4.4-1.2-9.6-1.8-15.4-1.8Z"/>
          <path class="cls-1" d="M736.6,386.6h-19.1c-1.7,0-2.9-.8-3.6-2.4l-69.1-163.1c-.4-1-.4-1.8,0-2.4s1.2-1,2.3-1h19.2c1.6,0,2.8.8,3.5,2.4l69.1,163.1c.5,1.1.5,1.9,0,2.5-.5.6-1.3.9-2.4.9Z"/>
        </g>
        <g>
          <path class="cls-1" d="M231.1,405.1v23.6c-5.9,0-11,.6-15.4,1.8s-8.1,3.2-11.1,5.8-5.5,5.6-7.4,9c-1.9,3.4-3.4,7.6-4.4,12.7-1,5.1-1.7,10.3-2.1,15.6-.4,5.3-.6,11.6-.6,18.8s.2,13.5.6,18.8c.4,5.3,1.1,10.5,2.1,15.6,1,5.1,2.5,9.4,4.4,12.8,1.9,3.4,4.4,6.4,7.4,9.1,3,2.7,6.7,4.6,11.1,5.9,4.4,1.2,9.6,1.8,15.4,1.8v23.5c-30.2,0-50.1-11.4-59.7-34.1-4.9-11.7-7.5-28.1-7.7-49.3v-4.2c0-5,0-9.5.2-13.4.2-4,.5-8.4,1.1-13.4.5-5,1.3-9.4,2.2-13.3.9-3.9,2.2-8,3.9-12.4,1.7-4.4,3.7-8.2,6-11.4,2.3-3.2,5.2-6.4,8.6-9.4s7.2-5.6,11.5-7.5c4.3-1.9,9.3-3.5,15-4.6,5.7-1.2,12-1.8,18.9-1.8Z"/>
          <path class="cls-1" d="M504.7,578.9h-245.9v-20.7h245.9v20.7Z"/>
          <path class="cls-1" d="M535.3,428.7v-23.6c6.9,0,13.2.6,18.9,1.8,5.7,1.2,10.7,2.7,15,4.6,4.3,1.9,8.1,4.4,11.5,7.5,3.4,3.1,6.3,6.2,8.6,9.4,2.3,3.2,4.3,7,6,11.4,1.7,4.4,3,8.5,3.9,12.4.9,3.9,1.7,8.3,2.2,13.3.5,5,.9,9.5,1,13.4.2,4,.3,8.5.3,13.4,0,20.5-1.9,36.4-5.6,47.8-7,21.7-21.9,34.4-44.8,38.4-5.2.9-10.9,1.4-17,1.4v-23.5c5.9,0,11-.6,15.4-1.8,4.4-1.2,8.1-3.2,11.1-5.9s5.5-5.7,7.4-9.1c1.9-3.4,3.4-7.7,4.4-12.8,1-5.1,1.8-10.3,2.2-15.6s.6-11.6.6-18.8-.2-13.5-.6-18.8-1.1-10.5-2.2-15.6c-1-5.1-2.5-9.3-4.4-12.7-1.9-3.4-4.4-6.4-7.4-9-3-2.6-6.7-4.6-11.1-5.8-4.4-1.2-9.6-1.8-15.4-1.8Z"/>
          <path class="cls-1" d="M736.6,584.2h-19.1c-1.7,0-2.9-.8-3.6-2.4l-69.1-163.1c-.4-1-.4-1.8,0-2.4s1.2-1,2.3-1h19.2c1.6,0,2.8.8,3.5,2.4l69.1,163.1c.5,1.1.5,1.9,0,2.5-.5.6-1.3.9-2.4.9Z"/>
        </g>
        <path class="cls-1" d="M356.5,746.6c-8.3,8.1-20.4,12.1-36.2,12.1s-27.9-4-36.2-12.1c-8.3-8.1-12.5-20.2-12.5-36.2v-85.6c0-.9.3-1.7.8-2.2s1.3-.8,2.2-.8h20.1c.9,0,1.6.3,2.2.8.6.5.8,1.3.8,2.2v83.5c0,8.2,1.9,14.5,5.7,18.9,3.8,4.4,9.4,6.6,16.9,6.6s13.1-2.2,16.9-6.6c3.8-4.4,5.7-10.7,5.7-18.9v-83.5c0-.9.3-1.7.8-2.2.6-.5,1.3-.8,2.2-.8h20.1c.9,0,1.7.3,2.2.8.5.5.8,1.3.8,2.2v85.6c0,16.1-4.2,28.1-12.5,36.2Z"/>
      </g>
    </g>
  </g>
</svg>